<svg width="627" height="627" viewBox="0 0 627 627" fill="none" xmlns="http://www.w3.org/2000/svg">
<g filter="url(#filter0_dii_115_34624)">
<path d="M617 372.319C617 458.1 514.066 509 303.83 509C103.577 509 10 458.1 10 372.319C10 286.539 89.852 217 310.693 217C531.533 217 617 286.539 617 372.319Z" fill="url(#paint0_radial_115_34624)"/>
<path d="M617 372.319C617 458.1 514.066 509 303.83 509C103.577 509 10 458.1 10 372.319C10 286.539 89.852 217 310.693 217C531.533 217 617 286.539 617 372.319Z" fill="url(#paint1_linear_115_34624)" fill-opacity="0.5"/>
<path d="M617 372.319C617 458.1 514.066 509 303.83 509C103.577 509 10 458.1 10 372.319C10 286.539 89.852 217 310.693 217C531.533 217 617 286.539 617 372.319Z" fill="url(#paint2_radial_115_34624)" fill-opacity="0.1"/>
<path d="M617 372.319C617 458.1 514.066 509 303.83 509C103.577 509 10 458.1 10 372.319C10 286.539 89.852 217 310.693 217C531.533 217 617 286.539 617 372.319Z" fill="url(#paint3_radial_115_34624)"/>
<path d="M310.692 218C421.033 218 497.409 235.377 546.164 263.359C594.863 291.31 616 329.829 616 372.319C616 414.695 590.622 448.574 538.843 471.916C487.021 495.278 408.894 508 303.83 508C203.759 508 130.48 495.277 82.2559 471.927C58.155 460.257 40.3477 445.952 28.5664 429.287C16.7917 412.632 11 393.571 11 372.319C11 329.803 30.7585 291.29 78.04 263.353C125.385 235.377 200.35 218 310.692 218Z" stroke="#A8C5E3" stroke-opacity="0.32" stroke-width="2"/>
</g>
<g filter="url(#filter1_diii_115_34624)">
<path d="M332 139.064C332 208.687 325.217 250 311.363 250C298.166 250 292 208.687 292 139.064C292 69.4407 297.262 13 311.815 13C326.368 13 332 69.4407 332 139.064Z" fill="url(#paint4_radial_115_34624)"/>
<path d="M332 139.064C332 208.687 325.217 250 311.363 250C298.166 250 292 208.687 292 139.064C292 69.4407 297.262 13 311.815 13C326.368 13 332 69.4407 332 139.064Z" fill="url(#paint5_linear_115_34624)" fill-opacity="0.5"/>
<path d="M332 139.064C332 208.687 325.217 250 311.363 250C298.166 250 292 208.687 292 139.064C292 69.4407 297.262 13 311.815 13C326.368 13 332 69.4407 332 139.064Z" fill="url(#paint6_radial_115_34624)" fill-opacity="0.1"/>
<path d="M332 139.064C332 208.687 325.217 250 311.363 250C298.166 250 292 208.687 292 139.064C292 69.4407 297.262 13 311.815 13C326.368 13 332 69.4407 332 139.064Z" fill="url(#paint7_radial_115_34624)"/>
<path d="M311.815 14C313.274 14.0001 314.705 14.6963 316.125 16.2383C317.557 17.7926 318.915 20.1461 320.181 23.2812C322.709 29.5467 324.765 38.6819 326.375 50.0635C329.592 72.8071 331 104.268 331 139.063C331 173.857 329.304 201.52 325.893 220.463C324.185 229.944 322.06 237.167 319.545 241.995C317.011 246.86 314.247 249 311.363 249C308.671 249 306.064 246.9 303.668 242.017C301.298 237.186 299.309 229.959 297.719 220.476C294.542 201.528 293 173.859 293 139.063C293 104.266 294.315 72.8043 297.44 50.0596C299.004 38.6773 301.014 29.5417 303.509 23.2764C304.757 20.1414 306.102 17.7895 307.523 16.2363C308.933 14.6958 310.358 14 311.815 14Z" stroke="#A8C5E3" stroke-opacity="0.32" stroke-width="2"/>
</g>
<g filter="url(#filter2_dii_115_34624)">
<path d="M359 46.8085C359 72.6601 343.06 88 310.503 88C279.491 88 265 72.6601 265 46.8085C265 20.9569 277.366 0 311.565 0C345.765 0 359 20.9569 359 46.8085Z" fill="url(#paint8_radial_115_34624)"/>
<path d="M359 46.8085C359 72.6601 343.06 88 310.503 88C279.491 88 265 72.6601 265 46.8085C265 20.9569 277.366 0 311.565 0C345.765 0 359 20.9569 359 46.8085Z" fill="url(#paint9_linear_115_34624)" fill-opacity="0.5"/>
<path d="M359 46.8085C359 72.6601 343.06 88 310.503 88C279.491 88 265 72.6601 265 46.8085C265 20.9569 277.366 0 311.565 0C345.765 0 359 20.9569 359 46.8085Z" fill="url(#paint10_radial_115_34624)" fill-opacity="0.1"/>
<path d="M359 46.8085C359 72.6601 343.06 88 310.503 88C279.491 88 265 72.6601 265 46.8085C265 20.9569 277.366 0 311.565 0C345.765 0 359 20.9569 359 46.8085Z" fill="url(#paint11_radial_115_34624)"/>
<path d="M311.565 1C328.453 1.00003 340.012 6.16676 347.362 14.377C354.731 22.6072 358 34.0397 358 46.8086C358 59.5224 354.088 69.5151 346.301 76.3467C338.493 83.1968 326.64 86.9999 310.503 87C295.149 87 284.058 83.203 276.808 76.3711C269.567 69.5484 266 59.5505 266 46.8086C266 34.0248 269.06 22.5919 276.213 14.3662C283.344 6.16597 294.678 1 311.565 1Z" stroke="#A8C5E3" stroke-opacity="0.32" stroke-width="2"/>
</g>
<g filter="url(#filter3_dii_115_34624)">
<path d="M582.695 387.759C582.695 525.046 491.379 606.509 304.872 606.509C127.221 606.509 44.2063 525.046 44.2063 387.759C44.2063 250.472 115.045 139.179 310.96 139.179C506.875 139.179 582.695 250.472 582.695 387.759Z" fill="url(#paint12_radial_115_34624)"/>
<path d="M582.695 387.759C582.695 525.046 491.379 606.509 304.872 606.509C127.221 606.509 44.2063 525.046 44.2063 387.759C44.2063 250.472 115.045 139.179 310.96 139.179C506.875 139.179 582.695 250.472 582.695 387.759Z" fill="url(#paint13_linear_115_34624)" fill-opacity="0.5"/>
<path d="M582.695 387.759C582.695 525.046 491.379 606.509 304.872 606.509C127.221 606.509 44.2063 525.046 44.2063 387.759C44.2063 250.472 115.045 139.179 310.96 139.179C506.875 139.179 582.695 250.472 582.695 387.759Z" fill="url(#paint14_radial_115_34624)" fill-opacity="0.1"/>
<path d="M310.96 140.179C408.728 140.179 476.371 167.944 519.576 212.681C562.79 257.426 581.695 319.291 581.695 387.759C581.695 456.165 558.956 510.541 513.092 547.841C467.195 585.168 397.999 605.509 304.872 605.509C216.182 605.509 151.289 585.173 108.578 547.864C65.8907 510.575 45.2063 456.196 45.2063 387.759C45.2063 319.275 62.8753 257.41 104.845 212.67C146.803 167.944 213.193 140.179 310.96 140.179Z" stroke="#A8C5E3" stroke-opacity="0.32" stroke-width="2"/>
</g>
<g filter="url(#filter4_dii_115_34624)">
<path d="M553 385.043C553 500.494 471.941 569 306.385 569C148.69 569 75 500.494 75 385.043C75 269.592 137.882 176 311.789 176C485.697 176 553 269.592 553 385.043Z" fill="url(#paint15_radial_115_34624)"/>
<path d="M553 385.043C553 500.494 471.941 569 306.385 569C148.69 569 75 500.494 75 385.043C75 269.592 137.882 176 311.789 176C485.697 176 553 269.592 553 385.043Z" fill="url(#paint16_radial_115_34624)" fill-opacity="0.5"/>
</g>
<g filter="url(#filter5_d_115_34624)">
<path d="M183.046 341.901C183.863 328.749 194.769 318.5 207.947 318.5C220.963 318.5 231.791 328.506 232.818 341.482L235.654 377.343C236.919 393.33 224.287 407 208.251 407C192.398 407 179.831 393.628 180.814 377.806L183.046 341.901Z" fill="#445B87"/>
</g>
<g filter="url(#filter6_d_115_34624)">
<path d="M393.046 341.901C393.863 328.749 404.769 318.5 417.947 318.5C430.963 318.5 441.791 328.506 442.818 341.482L445.654 377.343C446.919 393.33 434.287 407 418.251 407C402.398 407 389.831 393.628 390.814 377.806L393.046 341.901Z" fill="#445B87"/>
</g>
<g opacity="0.8" filter="url(#filter7_f_115_34624)">
<ellipse cx="214.5" cy="347" rx="7.5" ry="11" fill="white"/>
</g>
<g opacity="0.8" filter="url(#filter8_f_115_34624)">
<ellipse cx="425.5" cy="347" rx="7.5" ry="11" fill="white"/>
</g>
<g filter="url(#filter9_f_115_34624)">
<ellipse cx="161.5" cy="453" rx="38.5" ry="37" fill="#E5CFE3"/>
</g>
<g filter="url(#filter10_f_115_34624)">
<ellipse cx="463.5" cy="453" rx="38.5" ry="37" fill="#E5CFE3"/>
</g>
<g filter="url(#filter11_d_115_34624)">
<path d="M361.865 418.895C364.281 417.798 367.034 417.706 369.518 418.639L370.453 418.99L370.93 419.184C375.623 421.224 378.019 426.5 376.467 431.377L376.299 431.863C368.733 452.037 351.808 461.631 338.288 466.138C331.877 468.275 325.897 469.394 321.368 469.987L320.481 470.1C318.738 470.311 317.22 470.444 315.988 470.528L314.855 470.598C314.513 470.616 314.203 470.631 313.928 470.642L313.207 470.665C313.112 470.668 313.026 470.668 312.949 470.669C312.679 470.681 312.508 470.677 312.468 470.676C312.427 470.677 312.256 470.681 311.985 470.669L311.729 470.665C311.524 470.66 311.283 470.652 311.008 470.642L310.081 470.598C308.876 470.533 307.251 470.416 305.307 470.198L304.454 470.1C300.123 469.575 294.273 468.555 287.924 466.551L286.647 466.138C273.127 461.631 256.202 452.037 248.637 431.863C246.698 426.695 249.315 420.932 254.482 418.99L255.418 418.639L255.887 418.477C258.245 417.722 260.805 417.866 263.07 418.895C265.486 419.992 267.367 422.004 268.299 424.488L268.511 425.039C273.049 436.515 282.973 442.776 293.288 446.214C298.45 447.934 303.352 448.812 306.981 449.252L308.265 449.396C309.477 449.52 310.474 449.59 311.198 449.629L312.258 449.671C312.364 449.674 312.434 449.674 312.468 449.675C312.501 449.674 312.572 449.674 312.678 449.671L313.737 449.629L314.55 449.579C315.45 449.517 316.603 449.416 317.954 449.252L319.372 449.066C322.812 448.58 327.131 447.72 331.647 446.214L332.628 445.878C342.75 442.316 352.34 435.945 356.637 424.488L356.822 424.028C357.805 421.756 359.6 419.923 361.865 418.895Z" fill="#465C88"/>
</g>
<defs>
<filter id="filter0_dii_115_34624" x="0" y="217" width="627" height="312" filterUnits="userSpaceOnUse" color-interpolation-filters="sRGB">
<feFlood flood-opacity="0" result="BackgroundImageFix"/>
<feColorMatrix in="SourceAlpha" type="matrix" values="0 0 0 0 0 0 0 0 0 0 0 0 0 0 0 0 0 0 127 0" result="hardAlpha"/>
<feOffset dy="10"/>
<feGaussianBlur stdDeviation="5"/>
<feComposite in2="hardAlpha" operator="out"/>
<feColorMatrix type="matrix" values="0 0 0 0 0 0 0 0 0 0 0 0 0 0 0 0 0 0 0.01 0"/>
<feBlend mode="normal" in2="BackgroundImageFix" result="effect1_dropShadow_115_34624"/>
<feBlend mode="normal" in="SourceGraphic" in2="effect1_dropShadow_115_34624" result="shape"/>
<feColorMatrix in="SourceAlpha" type="matrix" values="0 0 0 0 0 0 0 0 0 0 0 0 0 0 0 0 0 0 127 0" result="hardAlpha"/>
<feOffset/>
<feGaussianBlur stdDeviation="10"/>
<feComposite in2="hardAlpha" operator="arithmetic" k2="-1" k3="1"/>
<feColorMatrix type="matrix" values="0 0 0 0 1 0 0 0 0 1 0 0 0 0 1 0 0 0 1 0"/>
<feBlend mode="normal" in2="shape" result="effect2_innerShadow_115_34624"/>
<feColorMatrix in="SourceAlpha" type="matrix" values="0 0 0 0 0 0 0 0 0 0 0 0 0 0 0 0 0 0 127 0" result="hardAlpha"/>
<feOffset dy="20"/>
<feGaussianBlur stdDeviation="5"/>
<feComposite in2="hardAlpha" operator="arithmetic" k2="-1" k3="1"/>
<feColorMatrix type="matrix" values="0 0 0 0 1 0 0 0 0 1 0 0 0 0 1 0 0 0 0.56 0"/>
<feBlend mode="normal" in2="effect2_innerShadow_115_34624" result="effect3_innerShadow_115_34624"/>
</filter>
<filter id="filter1_diii_115_34624" x="282" y="13" width="60" height="257" filterUnits="userSpaceOnUse" color-interpolation-filters="sRGB">
<feFlood flood-opacity="0" result="BackgroundImageFix"/>
<feColorMatrix in="SourceAlpha" type="matrix" values="0 0 0 0 0 0 0 0 0 0 0 0 0 0 0 0 0 0 127 0" result="hardAlpha"/>
<feOffset dy="10"/>
<feGaussianBlur stdDeviation="5"/>
<feComposite in2="hardAlpha" operator="out"/>
<feColorMatrix type="matrix" values="0 0 0 0 0 0 0 0 0 0 0 0 0 0 0 0 0 0 0.01 0"/>
<feBlend mode="normal" in2="BackgroundImageFix" result="effect1_dropShadow_115_34624"/>
<feBlend mode="normal" in="SourceGraphic" in2="effect1_dropShadow_115_34624" result="shape"/>
<feColorMatrix in="SourceAlpha" type="matrix" values="0 0 0 0 0 0 0 0 0 0 0 0 0 0 0 0 0 0 127 0" result="hardAlpha"/>
<feOffset/>
<feGaussianBlur stdDeviation="10"/>
<feComposite in2="hardAlpha" operator="arithmetic" k2="-1" k3="1"/>
<feColorMatrix type="matrix" values="0 0 0 0 1 0 0 0 0 1 0 0 0 0 1 0 0 0 1 0"/>
<feBlend mode="normal" in2="shape" result="effect2_innerShadow_115_34624"/>
<feColorMatrix in="SourceAlpha" type="matrix" values="0 0 0 0 0 0 0 0 0 0 0 0 0 0 0 0 0 0 127 0" result="hardAlpha"/>
<feOffset dy="20"/>
<feGaussianBlur stdDeviation="5"/>
<feComposite in2="hardAlpha" operator="arithmetic" k2="-1" k3="1"/>
<feColorMatrix type="matrix" values="0 0 0 0 1 0 0 0 0 1 0 0 0 0 1 0 0 0 0.56 0"/>
<feBlend mode="normal" in2="effect2_innerShadow_115_34624" result="effect3_innerShadow_115_34624"/>
<feColorMatrix in="SourceAlpha" type="matrix" values="0 0 0 0 0 0 0 0 0 0 0 0 0 0 0 0 0 0 127 0" result="hardAlpha"/>
<feOffset dy="4"/>
<feGaussianBlur stdDeviation="2"/>
<feComposite in2="hardAlpha" operator="arithmetic" k2="-1" k3="1"/>
<feColorMatrix type="matrix" values="0 0 0 0 0.0546727 0 0 0 0 0.217698 0 0 0 0 0.869798 0 0 0 0.25 0"/>
<feBlend mode="normal" in2="effect3_innerShadow_115_34624" result="effect4_innerShadow_115_34624"/>
</filter>
<filter id="filter2_dii_115_34624" x="255" y="0" width="114" height="108" filterUnits="userSpaceOnUse" color-interpolation-filters="sRGB">
<feFlood flood-opacity="0" result="BackgroundImageFix"/>
<feColorMatrix in="SourceAlpha" type="matrix" values="0 0 0 0 0 0 0 0 0 0 0 0 0 0 0 0 0 0 127 0" result="hardAlpha"/>
<feOffset dy="10"/>
<feGaussianBlur stdDeviation="5"/>
<feComposite in2="hardAlpha" operator="out"/>
<feColorMatrix type="matrix" values="0 0 0 0 0 0 0 0 0 0 0 0 0 0 0 0 0 0 0.01 0"/>
<feBlend mode="normal" in2="BackgroundImageFix" result="effect1_dropShadow_115_34624"/>
<feBlend mode="normal" in="SourceGraphic" in2="effect1_dropShadow_115_34624" result="shape"/>
<feColorMatrix in="SourceAlpha" type="matrix" values="0 0 0 0 0 0 0 0 0 0 0 0 0 0 0 0 0 0 127 0" result="hardAlpha"/>
<feOffset/>
<feGaussianBlur stdDeviation="10"/>
<feComposite in2="hardAlpha" operator="arithmetic" k2="-1" k3="1"/>
<feColorMatrix type="matrix" values="0 0 0 0 1 0 0 0 0 1 0 0 0 0 1 0 0 0 1 0"/>
<feBlend mode="normal" in2="shape" result="effect2_innerShadow_115_34624"/>
<feColorMatrix in="SourceAlpha" type="matrix" values="0 0 0 0 0 0 0 0 0 0 0 0 0 0 0 0 0 0 127 0" result="hardAlpha"/>
<feOffset dy="20"/>
<feGaussianBlur stdDeviation="5"/>
<feComposite in2="hardAlpha" operator="arithmetic" k2="-1" k3="1"/>
<feColorMatrix type="matrix" values="0 0 0 0 1 0 0 0 0 1 0 0 0 0 1 0 0 0 0.56 0"/>
<feBlend mode="normal" in2="effect2_innerShadow_115_34624" result="effect3_innerShadow_115_34624"/>
</filter>
<filter id="filter3_dii_115_34624" x="34.2063" y="139.179" width="558.488" height="487.33" filterUnits="userSpaceOnUse" color-interpolation-filters="sRGB">
<feFlood flood-opacity="0" result="BackgroundImageFix"/>
<feColorMatrix in="SourceAlpha" type="matrix" values="0 0 0 0 0 0 0 0 0 0 0 0 0 0 0 0 0 0 127 0" result="hardAlpha"/>
<feOffset dy="10"/>
<feGaussianBlur stdDeviation="5"/>
<feComposite in2="hardAlpha" operator="out"/>
<feColorMatrix type="matrix" values="0 0 0 0 0 0 0 0 0 0 0 0 0 0 0 0 0 0 0.01 0"/>
<feBlend mode="normal" in2="BackgroundImageFix" result="effect1_dropShadow_115_34624"/>
<feBlend mode="normal" in="SourceGraphic" in2="effect1_dropShadow_115_34624" result="shape"/>
<feColorMatrix in="SourceAlpha" type="matrix" values="0 0 0 0 0 0 0 0 0 0 0 0 0 0 0 0 0 0 127 0" result="hardAlpha"/>
<feOffset/>
<feGaussianBlur stdDeviation="10"/>
<feComposite in2="hardAlpha" operator="arithmetic" k2="-1" k3="1"/>
<feColorMatrix type="matrix" values="0 0 0 0 1 0 0 0 0 1 0 0 0 0 1 0 0 0 1 0"/>
<feBlend mode="normal" in2="shape" result="effect2_innerShadow_115_34624"/>
<feColorMatrix in="SourceAlpha" type="matrix" values="0 0 0 0 0 0 0 0 0 0 0 0 0 0 0 0 0 0 127 0" result="hardAlpha"/>
<feOffset dy="20"/>
<feGaussianBlur stdDeviation="5"/>
<feComposite in2="hardAlpha" operator="arithmetic" k2="-1" k3="1"/>
<feColorMatrix type="matrix" values="0 0 0 0 1 0 0 0 0 1 0 0 0 0 1 0 0 0 0.56 0"/>
<feBlend mode="normal" in2="effect2_innerShadow_115_34624" result="effect3_innerShadow_115_34624"/>
</filter>
<filter id="filter4_dii_115_34624" x="71" y="172" width="486" height="401" filterUnits="userSpaceOnUse" color-interpolation-filters="sRGB">
<feFlood flood-opacity="0" result="BackgroundImageFix"/>
<feColorMatrix in="SourceAlpha" type="matrix" values="0 0 0 0 0 0 0 0 0 0 0 0 0 0 0 0 0 0 127 0" result="hardAlpha"/>
<feOffset/>
<feGaussianBlur stdDeviation="2"/>
<feComposite in2="hardAlpha" operator="out"/>
<feColorMatrix type="matrix" values="0 0 0 0 0 0 0 0 0 0 0 0 0 0 0 0 0 0 0.14 0"/>
<feBlend mode="normal" in2="BackgroundImageFix" result="effect1_dropShadow_115_34624"/>
<feBlend mode="normal" in="SourceGraphic" in2="effect1_dropShadow_115_34624" result="shape"/>
<feColorMatrix in="SourceAlpha" type="matrix" values="0 0 0 0 0 0 0 0 0 0 0 0 0 0 0 0 0 0 127 0" result="hardAlpha"/>
<feOffset/>
<feGaussianBlur stdDeviation="2"/>
<feComposite in2="hardAlpha" operator="arithmetic" k2="-1" k3="1"/>
<feColorMatrix type="matrix" values="0 0 0 0 1 0 0 0 0 1 0 0 0 0 1 0 0 0 0.6 0"/>
<feBlend mode="normal" in2="shape" result="effect2_innerShadow_115_34624"/>
<feColorMatrix in="SourceAlpha" type="matrix" values="0 0 0 0 0 0 0 0 0 0 0 0 0 0 0 0 0 0 127 0" result="hardAlpha"/>
<feOffset/>
<feGaussianBlur stdDeviation="2"/>
<feComposite in2="hardAlpha" operator="arithmetic" k2="-1" k3="1"/>
<feColorMatrix type="matrix" values="0 0 0 0 1 0 0 0 0 1 0 0 0 0 1 0 0 0 0.25 0"/>
<feBlend mode="normal" in2="effect2_innerShadow_115_34624" result="effect3_innerShadow_115_34624"/>
</filter>
<filter id="filter5_d_115_34624" x="176.76" y="316.5" width="62.9812" height="96.5" filterUnits="userSpaceOnUse" color-interpolation-filters="sRGB">
<feFlood flood-opacity="0" result="BackgroundImageFix"/>
<feColorMatrix in="SourceAlpha" type="matrix" values="0 0 0 0 0 0 0 0 0 0 0 0 0 0 0 0 0 0 127 0" result="hardAlpha"/>
<feOffset dy="2"/>
<feGaussianBlur stdDeviation="2"/>
<feComposite in2="hardAlpha" operator="out"/>
<feColorMatrix type="matrix" values="0 0 0 0 0 0 0 0 0 0 0 0 0 0 0 0 0 0 0.14 0"/>
<feBlend mode="normal" in2="BackgroundImageFix" result="effect1_dropShadow_115_34624"/>
<feBlend mode="normal" in="SourceGraphic" in2="effect1_dropShadow_115_34624" result="shape"/>
</filter>
<filter id="filter6_d_115_34624" x="386.76" y="316.5" width="62.9812" height="96.5" filterUnits="userSpaceOnUse" color-interpolation-filters="sRGB">
<feFlood flood-opacity="0" result="BackgroundImageFix"/>
<feColorMatrix in="SourceAlpha" type="matrix" values="0 0 0 0 0 0 0 0 0 0 0 0 0 0 0 0 0 0 127 0" result="hardAlpha"/>
<feOffset dy="2"/>
<feGaussianBlur stdDeviation="2"/>
<feComposite in2="hardAlpha" operator="out"/>
<feColorMatrix type="matrix" values="0 0 0 0 0 0 0 0 0 0 0 0 0 0 0 0 0 0 0.14 0"/>
<feBlend mode="normal" in2="BackgroundImageFix" result="effect1_dropShadow_115_34624"/>
<feBlend mode="normal" in="SourceGraphic" in2="effect1_dropShadow_115_34624" result="shape"/>
</filter>
<filter id="filter7_f_115_34624" x="197" y="326" width="35" height="42" filterUnits="userSpaceOnUse" color-interpolation-filters="sRGB">
<feFlood flood-opacity="0" result="BackgroundImageFix"/>
<feBlend mode="normal" in="SourceGraphic" in2="BackgroundImageFix" result="shape"/>
<feGaussianBlur stdDeviation="5" result="effect1_foregroundBlur_115_34624"/>
</filter>
<filter id="filter8_f_115_34624" x="408" y="326" width="35" height="42" filterUnits="userSpaceOnUse" color-interpolation-filters="sRGB">
<feFlood flood-opacity="0" result="BackgroundImageFix"/>
<feBlend mode="normal" in="SourceGraphic" in2="BackgroundImageFix" result="shape"/>
<feGaussianBlur stdDeviation="5" result="effect1_foregroundBlur_115_34624"/>
</filter>
<filter id="filter9_f_115_34624" x="73" y="366" width="177" height="174" filterUnits="userSpaceOnUse" color-interpolation-filters="sRGB">
<feFlood flood-opacity="0" result="BackgroundImageFix"/>
<feBlend mode="normal" in="SourceGraphic" in2="BackgroundImageFix" result="shape"/>
<feGaussianBlur stdDeviation="25" result="effect1_foregroundBlur_115_34624"/>
</filter>
<filter id="filter10_f_115_34624" x="375" y="366" width="177" height="174" filterUnits="userSpaceOnUse" color-interpolation-filters="sRGB">
<feFlood flood-opacity="0" result="BackgroundImageFix"/>
<feBlend mode="normal" in="SourceGraphic" in2="BackgroundImageFix" result="shape"/>
<feGaussianBlur stdDeviation="25" result="effect1_foregroundBlur_115_34624"/>
</filter>
<filter id="filter11_d_115_34624" x="243.997" y="414" width="136.941" height="60.6777" filterUnits="userSpaceOnUse" color-interpolation-filters="sRGB">
<feFlood flood-opacity="0" result="BackgroundImageFix"/>
<feColorMatrix in="SourceAlpha" type="matrix" values="0 0 0 0 0 0 0 0 0 0 0 0 0 0 0 0 0 0 127 0" result="hardAlpha"/>
<feOffset/>
<feGaussianBlur stdDeviation="2"/>
<feComposite in2="hardAlpha" operator="out"/>
<feColorMatrix type="matrix" values="0 0 0 0 0 0 0 0 0 0 0 0 0 0 0 0 0 0 0.15 0"/>
<feBlend mode="normal" in2="BackgroundImageFix" result="effect1_dropShadow_115_34624"/>
<feBlend mode="normal" in="SourceGraphic" in2="effect1_dropShadow_115_34624" result="shape"/>
</filter>
<radialGradient id="paint0_radial_115_34624" cx="0" cy="0" r="1" gradientUnits="userSpaceOnUse" gradientTransform="translate(423.461 285.619) rotate(116.209) scale(248.979 447.634)">
<stop stop-color="#C0E3FF"/>
<stop offset="0.730769" stop-color="#C4DEFA"/>
<stop offset="1" stop-color="#ABC8F4"/>
</radialGradient>
<linearGradient id="paint1_linear_115_34624" x1="506.876" y1="248.754" x2="475.475" y2="428.698" gradientUnits="userSpaceOnUse">
<stop stop-color="#93BBEE" stop-opacity="0"/>
<stop offset="1" stop-color="#93BBEE"/>
</linearGradient>
<radialGradient id="paint2_radial_115_34624" cx="0" cy="0" r="1" gradientUnits="userSpaceOnUse" gradientTransform="translate(397.534 224.386) rotate(135.809) scale(408.749 547.074)">
<stop stop-color="#93BBF6"/>
<stop offset="1" stop-color="#EFF4FF"/>
</radialGradient>
<radialGradient id="paint3_radial_115_34624" cx="0" cy="0" r="1" gradientUnits="userSpaceOnUse" gradientTransform="translate(477 217) rotate(101.43) scale(186.703 388.112)">
<stop stop-color="#CDF6FC"/>
<stop offset="0.970094" stop-color="#94C4F4"/>
</radialGradient>
<radialGradient id="paint4_radial_115_34624" cx="0" cy="0" r="1" gradientUnits="userSpaceOnUse" gradientTransform="translate(319.246 68.6941) rotate(92.2887) scale(181.451 32.8522)">
<stop stop-color="#C0E3FF"/>
<stop offset="0.730769" stop-color="#C4DEFA"/>
<stop offset="1" stop-color="#ABC8F4"/>
</radialGradient>
<linearGradient id="paint5_linear_115_34624" x1="324.743" y1="38.7731" x2="267.182" y2="65.5545" gradientUnits="userSpaceOnUse">
<stop stop-color="#93BBEE" stop-opacity="0"/>
<stop offset="1" stop-color="#93BBEE"/>
</linearGradient>
<radialGradient id="paint6_radial_115_34624" cx="0" cy="0" r="1" gradientUnits="userSpaceOnUse" gradientTransform="translate(317.538 18.9948) rotate(94.774) scale(232.059 51.5395)">
<stop stop-color="#93BBF6"/>
<stop offset="1" stop-color="#EFF4FF"/>
</radialGradient>
<radialGradient id="paint7_radial_115_34624" cx="0" cy="0" r="1" gradientUnits="userSpaceOnUse" gradientTransform="translate(322.774 13) rotate(90.9405) scale(148.551 26.0898)">
<stop stop-color="#CDF6FC"/>
<stop offset="0.970094" stop-color="#94C4F4"/>
</radialGradient>
<radialGradient id="paint8_radial_115_34624" cx="0" cy="0" r="1" gradientUnits="userSpaceOnUse" gradientTransform="translate(329.029 20.6797) rotate(104.195) scale(69.4406 74.9051)">
<stop stop-color="#C0E3FF"/>
<stop offset="0.730769" stop-color="#C4DEFA"/>
<stop offset="1" stop-color="#ABC8F4"/>
</radialGradient>
<linearGradient id="paint9_linear_115_34624" x1="341.946" y1="9.56974" x2="324.931" y2="59.6725" gradientUnits="userSpaceOnUse">
<stop stop-color="#93BBEE" stop-opacity="0"/>
<stop offset="1" stop-color="#93BBEE"/>
</linearGradient>
<radialGradient id="paint10_radial_115_34624" cx="0" cy="0" r="1" gradientUnits="userSpaceOnUse" gradientTransform="translate(325.014 2.2259) rotate(117.86) scale(97.1235 107.453)">
<stop stop-color="#93BBF6"/>
<stop offset="1" stop-color="#EFF4FF"/>
</radialGradient>
<radialGradient id="paint11_radial_115_34624" cx="0" cy="0" r="1" gradientUnits="userSpaceOnUse" gradientTransform="translate(337.32) rotate(95.9314) scale(55.4475 60.9909)">
<stop stop-color="#CDF6FC"/>
<stop offset="0.970094" stop-color="#94C4F4"/>
</radialGradient>
<radialGradient id="paint12_radial_115_34624" cx="0" cy="0" r="1" gradientUnits="userSpaceOnUse" gradientTransform="translate(411 249) rotate(105.262) scale(370.579 427.005)">
<stop stop-color="#C0E3FF"/>
<stop offset="0.730769" stop-color="#C4DEFA"/>
<stop offset="1" stop-color="#ABC8F4"/>
</radialGradient>
<linearGradient id="paint13_linear_115_34624" x1="485" y1="190" x2="400" y2="460" gradientUnits="userSpaceOnUse">
<stop stop-color="#93BBEE" stop-opacity="0"/>
<stop offset="1" stop-color="#93BBEE"/>
</linearGradient>
<radialGradient id="paint14_radial_115_34624" cx="0" cy="0" r="1" gradientUnits="userSpaceOnUse" gradientTransform="translate(388 151) rotate(119.691) scale(524.915 604.842)">
<stop stop-color="#93BBF6"/>
<stop offset="1" stop-color="#EFF4FF"/>
</radialGradient>
<radialGradient id="paint15_radial_115_34624" cx="0" cy="0" r="1" gradientUnits="userSpaceOnUse" gradientTransform="translate(385 269) rotate(109.712) scale(275.309 334.953)">
<stop stop-color="#F7FAFF"/>
<stop offset="0.485577" stop-color="#EAF2FD"/>
<stop offset="1" stop-color="#CADEF7"/>
</radialGradient>
<radialGradient id="paint16_radial_115_34624" cx="0" cy="0" r="1" gradientUnits="userSpaceOnUse" gradientTransform="translate(228 242) rotate(114.969) scale(144.506 175.761)">
<stop stop-color="#D2E7FA" stop-opacity="0"/>
<stop offset="1" stop-color="#D2E7FA"/>
</radialGradient>
</defs>
</svg>
